<svg width="6" height="10" viewBox="0 0 6 10" xmlns="http://www.w3.org/2000/svg">
<path d="M0.0784063 0.960613C0.0282258 0.913679 0 0.84979 0 0.78314C0 0.716491 0.0282258 0.652602 0.0784063 0.605667L0.640348 0.0757478C0.688449 0.0274165 0.755607 0 0.825895 0C0.896183 0 0.963341 0.0274165 1.01144 0.0757478L5.88337 4.67005C5.95796 4.7403 5.99991 4.8356 6 4.93501V5.06499C5.99991 5.1644 5.95796 5.2597 5.88337 5.32995L1.01144 9.92425C0.963341 9.97258 0.896183 10 0.825895 10C0.755607 10 0.688449 9.97258 0.640348 9.92425L0.0784063 9.39433C0.0282258 9.3474 0 9.28351 0 9.21686C0 9.15021 0.0282258 9.08632 0.0784063 9.03939L4.36189 5L0.0784063 0.960613Z"/>
</svg>
